<?xml version="1.0" standalone="no"?>
<!DOCTYPE svg PUBLIC "-//W3C//DTD SVG 20010904//EN"
 "http://www.w3.org/TR/2001/REC-SVG-20010904/DTD/svg10.dtd">
<svg version="1.0" xmlns="http://www.w3.org/2000/svg"
 width="597.000000pt" height="1024.000000pt" viewBox="0 0 597.000000 1024.000000"
 preserveAspectRatio="xMidYMid meet">

<g transform="translate(0.000000,1024.000000) scale(0.100000,-0.100000)"
fill="#000000" stroke="none">
<path d="M5222 10160 c-131 -179 -288 -300 -512 -394 -381 -161 -878 -218
-1400 -160 -261 29 -499 85 -461 108 6 4 11 18 11 31 0 16 12 33 35 51 20 15
34 28 32 30 -2 2 -64 10 -138 19 -73 8 -199 25 -279 37 -205 32 -491 31 -637
0 -354 -76 -666 -271 -827 -516 -46 -70 -94 -170 -136 -281 -14 -38 -21 -26
-46 78 -10 42 -21 77 -24 77 -21 0 -93 -199 -117 -319 -21 -105 -23 -350 -4
-466 38 -231 129 -429 273 -597 l50 -58 -66 -117 c-122 -221 -160 -393 -160
-723 -1 -208 14 -364 65 -720 39 -268 71 -399 120 -495 21 -42 39 -87 39 -99
0 -13 -45 -82 -106 -162 -131 -173 -164 -238 -171 -342 l-6 -77 -82 -105
c-142 -181 -191 -267 -251 -444 -13 -38 -24 -71 -24 -72 0 -2 16 0 35 3 26 4
35 2 35 -8 0 -8 -14 -79 -30 -159 -45 -217 -56 -374 -42 -577 10 -151 34 -319
47 -332 3 -2 15 5 28 16 16 16 28 19 44 13 26 -11 28 -22 48 -315 20 -284 37
-390 86 -545 27 -82 79 -200 90 -200 4 0 11 17 15 37 8 42 39 82 53 67 5 -5
35 -74 66 -154 153 -389 346 -680 595 -898 82 -72 177 -142 192 -142 5 0 8 13
8 29 0 37 22 46 62 25 16 -8 107 -66 201 -128 169 -111 207 -135 397 -251 146
-90 347 -244 424 -325 84 -90 138 -173 201 -313 27 -60 53 -111 58 -114 5 -3
14 0 20 6 6 6 18 11 27 11 9 0 82 75 162 167 219 252 481 500 889 840 80 67
168 146 195 176 27 30 60 59 71 66 20 10 24 7 42 -35 16 -34 25 -45 37 -40 8
3 26 6 40 6 17 0 41 21 89 77 157 184 256 382 366 731 47 151 70 202 89 202 4
0 17 -11 28 -25 l20 -26 34 19 c37 21 73 79 118 194 57 146 83 276 135 658 15
113 30 170 45 170 4 0 15 -18 24 -41 9 -22 20 -38 24 -35 21 13 74 140 93 221
33 141 38 431 10 590 -36 213 -143 496 -302 802 l-89 172 0 90 c0 113 -13 149
-118 313 -44 69 -83 134 -86 146 -5 13 3 44 19 84 86 202 102 274 145 658 45
405 49 641 16 860 -16 98 -64 254 -110 350 -14 30 -26 62 -26 70 0 8 35 49 79
90 86 82 151 176 229 327 135 264 198 499 211 793 14 334 -32 592 -151 843
-23 48 -43 86 -44 84 -2 -2 -20 -50 -40 -108 -50 -143 -96 -239 -129 -269
l-27 -25 15 35 c9 19 31 71 51 115 70 159 96 334 76 520 -6 62 -14 124 -18
138 -7 24 -9 23 -50 -33z m-41 -270 c-19 -89 -53 -145 -149 -244 -202 -208
-542 -315 -1177 -371 -677 -59 -944 -94 -1085 -143 -274 -95 -394 -268 -395
-567 0 -98 4 -134 23 -195 34 -108 83 -195 155 -273 l62 -68 300 -15 c565 -27
796 -65 1088 -180 479 -188 501 -194 692 -203 l140 -6 -60 -13 c-86 -19 -96
-24 -55 -32 26 -6 15 -8 -45 -9 -95 -1 -213 18 -360 59 -59 17 -109 29 -111
27 -10 -9 220 -109 292 -126 67 -17 73 -20 39 -20 -66 -1 -154 24 -361 104
-107 42 -201 74 -207 72 -13 -4 3 -12 279 -132 198 -86 264 -105 370 -105 70
0 114 -13 114 -33 0 -9 -10 -12 -34 -9 -18 2 -44 -2 -57 -9 l-24 -13 31 -8
c21 -5 35 -17 43 -35 8 -22 58 -295 62 -339 0 -5 4 0 9 11 23 53 1 225 -39
303 -22 43 -19 52 16 52 30 0 35 -14 62 -180 11 -74 25 -160 30 -190 8 -51 9
-47 10 51 1 95 -17 247 -36 294 -4 12 -3 16 5 11 20 -12 53 -138 63 -246 6
-58 13 -130 17 -160 l6 -55 8 80 c10 93 -4 276 -28 354 -8 29 -13 55 -10 58
19 19 81 -303 93 -479 3 -54 9 -98 13 -98 21 0 28 247 10 340 -12 65 -6 78 10
19 24 -87 32 -168 32 -304 -1 -77 4 -168 10 -203 6 -35 8 -65 5 -69 -3 -3 -15
10 -26 28 l-20 33 6 -107 c3 -59 3 -107 0 -107 -3 0 -12 26 -19 58 -13 55 -13
51 -19 -143 -5 -170 -9 -210 -28 -270 -43 -132 -43 -110 0 176 15 101 5 183
-34 275 -36 85 -94 214 -99 219 -2 2 -2 -15 0 -38 4 -40 3 -41 -14 -25 -9 9
-28 48 -41 85 l-23 68 6 -57 c4 -32 3 -58 0 -58 -8 0 -51 94 -72 155 l-14 40
5 -60 5 -60 -20 38 c-12 21 -25 35 -30 32 -9 -6 -23 36 -36 109 -6 32 -8 36
-17 21 -15 -28 1 -153 28 -212 24 -52 38 -66 150 -136 51 -32 86 -86 100 -153
6 -28 4 -27 -39 19 -51 55 -58 54 -22 -1 53 -80 55 -144 20 -532 -21 -242 -21
-243 239 -608 50 -71 52 -75 51 -140 0 -60 -6 -81 -57 -193 -32 -69 -71 -142
-88 -162 -17 -21 -69 -60 -115 -89 -46 -28 -84 -53 -84 -56 0 -2 16 -1 35 2
47 9 44 -4 -7 -37 -56 -36 -73 -33 -199 44 -150 91 -185 103 -304 103 -82 0
-134 -8 -285 -43 -102 -24 -212 -54 -245 -68 -33 -13 -72 -30 -87 -36 -34 -14
-37 -31 -5 -24 12 3 43 9 69 12 l48 7 -25 -56 c-28 -63 -29 -66 -17 -66 5 0
19 23 32 50 36 77 51 81 29 9 -24 -76 -17 -90 11 -23 39 94 41 94 34 -1 -3
-49 -7 -91 -9 -94 -2 -2 -28 2 -57 9 -81 18 -89 21 -83 30 7 12 -134 30 -233
30 -138 0 -219 -28 -361 -124 -46 -31 -87 -56 -91 -56 -4 0 -27 15 -51 34 -61
46 -158 93 -232 113 -70 18 -241 21 -320 5 -46 -9 -49 -9 -58 15 -13 34 -12
35 13 27 19 -6 18 -2 -10 34 -37 46 -38 49 -14 54 12 3 4 12 -31 35 -36 23
-74 36 -160 52 -261 48 -373 63 -434 57 -80 -7 -188 -52 -278 -116 -109 -77
-108 -77 -152 -47 -66 46 -189 170 -225 227 -49 77 -68 138 -68 224 0 90 17
142 104 311 120 236 123 271 66 775 -30 264 -32 303 -22 373 14 98 38 137 110
185 103 68 142 146 142 283 0 70 -14 71 -25 2 -6 -38 -9 -44 -16 -28 -4 11 -8
34 -8 52 -1 17 -5 35 -11 38 -6 4 -10 -27 -10 -87 0 -115 -11 -156 -51 -194
-32 -29 -32 -29 -25 -4 30 102 36 132 35 190 l0 65 -14 -50 c-36 -133 -78
-227 -126 -282 -88 -100 -102 -194 -70 -468 14 -119 18 -182 11 -189 -7 -7
-10 -1 -10 18 0 15 -5 36 -10 46 -6 11 -17 86 -25 167 -21 208 -23 205 -18
-27 6 -285 -11 -242 -42 107 -50 562 -51 742 -4 958 30 140 84 277 141 358 36
51 31 20 -6 -41 -69 -111 -106 -259 -126 -495 -12 -148 -12 -372 -1 -437 7
-34 9 -14 10 85 3 370 49 659 131 842 l28 62 64 -21 c75 -24 197 -28 278 -8
30 7 123 39 205 71 227 87 541 194 625 213 41 10 81 19 88 22 10 3 6 15 -13
46 -47 75 -82 160 -105 253 -20 79 -22 107 -17 230 8 213 52 339 158 458 85
96 198 158 384 212 134 39 240 52 675 85 510 39 667 55 875 90 223 38 326 68
462 136 208 103 318 222 377 408 13 38 18 6 7 -44z m-77 -272 c-29 -51 -83
-113 -124 -143 -119 -87 -335 -170 -572 -220 -149 -31 -191 -29 -68 4 463 123
578 173 704 307 60 64 74 75 60 52z m-3255 -77 c-52 -26 -124 -67 -160 -90
l-64 -42 54 51 c54 52 124 93 196 116 78 25 69 13 -26 -35z m2915 39 c-6 -6
-53 -27 -105 -48 -162 -66 -390 -123 -487 -121 -37 0 -9 9 123 40 94 21 235
61 315 88 155 53 170 57 154 41z m-2709 -39 c-391 -166 -566 -344 -652 -666
-24 -89 -26 -119 -27 -275 -1 -166 0 -179 25 -245 15 -38 52 -137 83 -219 32
-81 55 -153 53 -160 -7 -18 -173 327 -190 397 -71 281 -22 589 129 819 104
157 308 295 535 362 126 37 148 31 44 -13z m275 -32 c-120 -27 -251 -66 -333
-100 -39 -16 -72 -27 -75 -25 -7 7 128 72 199 97 78 26 188 47 249 47 39 0 34
-2 -40 -19z m-823 -138 c-286 -300 -369 -846 -185 -1226 l29 -60 -26 30 c-157
180 -200 512 -109 834 33 119 122 293 184 363 42 47 159 138 177 138 3 0 -28
-36 -70 -79z m2427 60 c11 -18 -76 -27 -484 -51 -572 -34 -671 -46 -834 -97
-159 -50 -269 -120 -348 -221 -56 -71 -80 -117 -108 -210 -12 -39 -24 -72 -27
-72 -11 0 7 136 24 185 62 186 267 335 541 395 136 30 255 38 957 69 265 12
273 12 279 2z m1236 -217 c-186 -188 -400 -296 -710 -358 -207 -41 -302 -48
-855 -57 -291 -4 -546 -11 -565 -14 -218 -38 -291 -67 -364 -145 -64 -69 -90
-128 -91 -210 0 -83 21 -139 90 -235 30 -41 50 -75 45 -75 -16 0 -91 72 -116
111 -32 51 -54 133 -54 201 0 158 116 290 312 352 194 62 334 74 978 86 424 8
511 12 610 30 285 50 516 157 690 319 88 81 111 78 30 -5z m-366 -44 c-28 -28
-221 -81 -378 -104 -73 -10 -27 6 171 59 217 59 221 59 207 45z m386 -1 c0
-22 -118 -133 -196 -185 -99 -66 -227 -127 -313 -149 -35 -9 -65 -14 -67 -12
-2 2 41 21 95 41 155 59 299 149 418 260 64 61 63 60 63 45z m-3138 -101 c-96
-128 -132 -243 -139 -449 -8 -216 22 -381 98 -531 16 -32 25 -58 19 -58 -19 0
-88 100 -118 172 -64 154 -78 353 -37 553 22 111 112 292 167 340 23 19 43 33
46 31 2 -3 -14 -28 -36 -58z m3363 -163 c-36 -156 -138 -286 -279 -355 -151
-75 -206 -84 -491 -84 -235 0 -266 2 -524 37 -382 53 -504 67 -596 67 -81 0
-181 -22 -242 -53 -42 -22 -97 -88 -113 -137 -17 -52 -30 -43 -19 15 19 101
72 153 189 184 121 33 391 24 825 -26 193 -23 272 -27 490 -27 234 0 268 2
336 21 230 64 382 208 421 396 7 34 14 54 16 45 2 -8 -4 -46 -13 -83z m-4265
-111 c-11 -81 -23 -150 -27 -153 -14 -14 6 237 23 289 27 80 29 38 4 -136z
m4183 55 c-48 -89 -153 -170 -280 -216 -96 -35 -109 -28 -20 11 42 19 99 48
126 66 51 32 181 162 181 180 0 6 5 10 11 10 5 0 -2 -23 -18 -51z m-3101 -79
c-24 -77 -26 -100 -26 -245 0 -156 10 -222 50 -330 5 -15 4 -17 -5 -9 -23 21
-60 153 -71 252 -16 146 6 296 57 395 24 48 23 26 -5 -63z m-1378 -82 c15
-180 85 -456 149 -588 34 -70 57 -101 135 -178 96 -96 95 -106 -1 -54 -115 62
-225 238 -279 447 -16 62 -21 124 -25 274 -4 125 -2 192 4 188 6 -4 13 -44 17
-89z m121 -341 c9 -40 18 -81 21 -92 3 -12 -1 -9 -11 8 -34 60 -66 217 -70
347 l-5 125 25 -158 c13 -87 31 -191 40 -230z m4285 134 c-30 -57 -155 -122
-272 -141 -90 -14 -316 -12 -433 5 -106 15 -223 40 -233 50 -3 3 41 2 99 -2
57 -5 196 -8 309 -8 233 0 292 10 440 76 100 44 104 45 90 20z m-205 -170
c-14 -24 -113 -46 -207 -46 -134 0 -147 19 -15 23 79 2 194 18 225 31 2 0 1
-3 -3 -8z m135 -128 c0 -5 -24 -39 -53 -78 -61 -81 -145 -141 -244 -175 -85
-28 -242 -38 -351 -20 -106 16 -703 188 -722 207 -13 13 -13 15 5 10 11 -3 40
-9 65 -12 25 -4 174 -38 332 -76 418 -100 519 -107 686 -49 71 25 178 97 229
155 37 42 53 53 53 38z m-330 -308 c-48 -27 -150 -39 -226 -26 -118 20 -111
32 16 26 63 -3 138 -2 165 3 70 13 73 13 45 -3z m65 -468 c15 -43 25 -80 23
-83 -5 -5 -68 151 -68 169 0 23 18 -10 45 -86z m129 -183 c14 -53 23 -235 12
-223 -4 4 -46 282 -46 302 1 23 18 -18 34 -79z m-86 -1404 c-17 -66 -34 -118
-38 -115 -4 3 -13 25 -19 50 -10 40 -9 52 9 93 15 33 23 43 29 33 6 -10 12 -3
21 23 6 20 15 36 20 36 4 0 -6 -54 -22 -120z m151 -610 c0 -19 -6 -46 -14 -60
l-14 -25 -1 26 c0 14 3 47 6 73 8 54 24 44 23 -14z m-2906 -586 c33 -68 46
-67 17 1 -23 54 -20 67 10 40 23 -21 85 -124 78 -130 -5 -5 -131 -35 -134 -32
-7 9 -14 177 -7 177 5 0 21 -25 36 -56z m-472 -122 c-11 -37 -36 -94 -56 -127
-68 -113 -65 -95 15 95 17 41 36 86 42 100 20 49 20 -1 -1 -68z m2670 -69 c27
-68 49 -127 49 -131 0 -4 -16 17 -35 47 -34 53 -68 143 -80 211 -9 53 9 19 66
-127z m-1663 72 c71 -22 61 -30 -14 -10 -77 20 -245 19 -337 -1 -105 -24 -216
-75 -447 -206 -261 -147 -310 -172 -423 -210 -163 -55 -377 -49 -498 13 -54
27 -45 35 12 10 73 -32 161 -44 272 -38 181 10 311 60 593 228 265 157 350
196 484 225 85 18 286 12 358 -11z m940 -15 c100 -33 155 -60 372 -185 327
-189 439 -235 612 -251 89 -8 212 9 291 41 68 27 59 7 -11 -23 -65 -28 -201
-45 -295 -37 -161 14 -267 56 -567 227 -228 130 -304 168 -402 202 -142 48
-307 56 -427 20 -55 -16 -67 -10 -18 11 86 36 325 33 445 -5z m1677 -65 c98
-213 148 -499 129 -723 l-8 -97 -7 170 c-9 262 -47 445 -138 673 -31 78 -15
63 24 -23z m-4535 -66 c-53 -204 -23 -376 91 -526 49 -65 37 -69 -21 -7 -100
109 -145 313 -105 482 14 57 40 122 49 122 2 0 -4 -32 -14 -71z m4366 -14 c22
-71 29 -208 14 -292 -15 -94 -66 -198 -118 -245 -23 -21 -44 -38 -47 -38 -2 0
20 34 50 75 77 107 100 182 99 320 -1 78 -7 133 -22 190 -16 60 -17 75 -6 60
8 -11 22 -42 30 -70z m-2467 24 c77 -16 68 -24 -22 -20 -97 4 -157 -8 -296
-60 -57 -22 -106 -38 -108 -36 -6 7 92 55 167 82 62 22 130 37 197 44 7 0 35
-4 62 -10z m706 -10 c56 -15 246 -91 241 -96 -2 -2 -51 12 -107 31 -127 43
-223 58 -304 47 -33 -5 -62 -7 -64 -5 -2 1 12 10 30 18 41 17 148 20 204 5z
m-2874 -181 c-26 -154 -40 -283 -42 -373 l-2 -70 -9 75 c-14 114 10 307 58
478 4 12 9 21 11 18 2 -2 -5 -60 -16 -128z m2299 82 c0 -5 -17 -10 -38 -10
-58 0 -181 -34 -268 -75 -102 -46 -192 -99 -459 -265 -121 -76 -256 -155 -300
-177 -80 -40 -242 -99 -251 -91 -2 3 56 30 130 62 135 58 186 87 421 242 215
141 552 298 673 314 85 11 92 11 92 0z m500 -37 c160 -53 378 -168 665 -354
188 -121 240 -150 340 -189 96 -39 120 -56 45 -34 -141 41 -248 97 -545 284
-283 179 -515 289 -640 307 -25 3 -48 10 -51 15 -10 16 104 -2 186 -29z m-90
-52 c60 -22 375 -194 400 -217 25 -24 -7 -16 -57 15 -90 55 -418 212 -463 221
l-45 9 55 -3 c30 -2 80 -14 110 -25z m-2155 -15 c52 -18 83 -21 242 -21 185 0
207 -6 92 -24 -129 -21 -295 -4 -380 40 -40 20 -67 49 -33 34 10 -4 46 -17 79
-29z m1575 -22 c-62 -30 -162 -82 -222 -115 -61 -34 -111 -59 -114 -57 -7 8
91 76 171 119 80 43 237 108 264 109 8 0 -37 -25 -99 -56z m2223 5 c-109 -51
-253 -60 -403 -25 -51 11 -42 12 110 9 149 -3 173 -1 250 20 111 31 117 31 43
-4z m-758 -127 c-21 -5 -135 52 -175 88 -30 27 -19 23 77 -27 62 -32 106 -59
98 -61z m-2141 87 c-22 -24 -153 -89 -180 -89 -17 0 170 108 190 109 5 1 1 -8
-10 -20z m-1116 -109 c60 -128 181 -230 345 -291 l52 -19 -53 4 c-128 12 -291
139 -356 277 -19 41 -37 92 -41 114 -5 36 -4 37 6 15 6 -14 27 -59 47 -100z
m4248 44 c-19 -139 -209 -325 -360 -353 -26 -5 -46 -5 -46 0 0 5 6 9 14 9 7 0
50 18 95 40 132 67 234 176 277 298 10 28 20 52 23 52 2 0 1 -21 -3 -46z
m-4517 -206 c0 -119 -3 -155 -10 -133 -18 57 -13 295 7 295 2 0 4 -73 3 -162z
m2681 112 c26 -14 38 -37 76 -150 33 -96 42 -91 25 12 -10 62 11 48 28 -17 17
-67 14 -122 -7 -143 -22 -22 -116 -36 -143 -22 -25 14 -39 68 -45 175 -5 79
-3 94 15 123 23 36 24 36 51 22z m-223 -12 c6 -7 16 -42 22 -78 7 -36 18 -87
24 -115 l12 -50 5 80 5 80 27 -110 c23 -97 25 -113 12 -132 -16 -25 -70 -36
-149 -31 l-50 3 -5 105 -5 105 -7 -64 c-5 -35 -8 -82 -8 -105 -1 -39 -1 -40
-16 -21 -13 17 -15 38 -10 125 8 139 19 176 59 200 37 23 70 26 84 8z m467
-30 c7 -13 17 -45 21 -72 4 -27 10 -58 15 -70 7 -17 9 -12 9 22 1 57 15 53 29
-9 20 -85 17 -97 -25 -108 -48 -14 -70 -14 -78 -1 -9 14 -26 240 -19 251 10
16 33 9 48 -13z m-2217 -32 c142 -1 151 -18 13 -24 -74 -4 -103 0 -160 18 -38
12 -77 28 -87 36 -11 8 8 5 47 -8 50 -16 94 -21 187 -22z m1446 15 c4 -4 18
-54 31 -111 18 -84 24 -99 30 -76 7 29 -1 88 -16 121 -8 17 -6 17 11 -3 18
-21 51 -136 51 -180 0 -36 -43 -63 -109 -69 -127 -12 -144 46 -79 265 20 70
22 73 47 67 14 -4 29 -10 34 -14z m2095 -2 c-90 -47 -248 -62 -328 -31 -19 8
6 10 95 11 105 0 226 18 244 36 2 3 9 5 15 5 6 -1 -6 -10 -26 -21z m-2322 -95
c6 -44 14 -90 18 -104 10 -36 -11 -58 -59 -61 -107 -5 -119 5 -101 93 11 55
25 86 27 57 0 -8 7 9 16 36 8 28 22 58 31 68 13 15 18 15 36 3 16 -10 23 -31
32 -92z m1182 64 c5 -7 15 -40 22 -73 17 -82 27 -99 36 -58 9 43 24 32 24 -17
0 -34 -4 -42 -30 -55 -65 -33 -79 -15 -89 110 -3 53 -5 98 -2 101 8 8 29 4 39
-8z m-1368 -82 c0 -76 -12 -125 -33 -138 -34 -22 -127 7 -127 39 0 61 64 153
107 153 13 0 15 -10 9 -72 -6 -67 -5 -71 9 -54 10 13 15 42 15 83 0 35 4 63
10 63 6 0 10 -31 10 -74z m-240 -93 c-1 -25 -14 -53 -26 -53 -22 0 -27 20 -8
41 17 19 34 25 34 12z m-316 -58 c-34 -27 -139 -74 -200 -90 -77 -20 -201 -29
-239 -16 -25 8 -18 9 46 10 93 1 196 27 314 78 91 40 114 45 79 18z m2600 -80
c33 -10 91 -21 130 -25 l71 -7 -80 -2 c-91 -1 -158 14 -248 57 -99 47 -110 65
-17 28 47 -19 112 -42 144 -51z m901 33 c-7 -29 -18 -111 -25 -183 -28 -304
-63 -546 -77 -531 -2 2 3 66 11 142 9 77 23 206 31 288 14 128 28 218 50 314
3 12 9 22 14 22 5 0 3 -24 -4 -52z m-3142 -28 c14 -11 35 -46 47 -77 25 -67
23 -105 -3 -56 -24 44 -38 51 -31 13 4 -16 4 -30 1 -30 -4 0 -70 103 -101 158
-12 21 58 14 87 -8z m166 -6 c25 -18 60 -87 61 -119 0 -17 -3 -16 -25 10 l-24
30 19 -65 c24 -78 23 -70 7 -70 -37 0 -124 124 -141 203 -6 26 -5 27 37 27 23
0 53 -7 66 -16z m1311 11 c0 -30 -24 -105 -33 -102 -7 2 -23 -24 -37 -61 -14
-36 -30 -67 -36 -69 -21 -7 -57 97 -48 142 8 47 37 77 80 85 48 10 74 11 74 5z
m160 -5 c0 -25 -31 -69 -44 -64 -9 4 -16 -4 -21 -25 -12 -57 -55 -66 -55 -12
0 35 34 79 74 97 38 16 46 17 46 4z m-1235 -43 c35 -30 49 -99 33 -170 l-12
-52 -8 58 c-13 97 -29 104 -22 10 8 -93 -1 -104 -36 -49 -19 31 -80 197 -80
218 0 4 22 8 49 8 37 0 57 -6 76 -23z m859 6 c4 -10 -2 -28 -14 -45 -13 -18
-24 -54 -30 -99 -10 -81 -30 -114 -54 -89 -19 20 -39 186 -25 211 9 18 23 23
79 32 14 3 28 5 31 6 4 0 10 -7 13 -16z m-234 -9 c11 -12 11 -28 2 -74 -12
-68 -46 -150 -61 -150 -6 0 -11 21 -12 48 -1 44 -2 42 -16 -31 -12 -62 -20
-81 -39 -94 -30 -19 -50 -6 -58 38 -3 16 -9 44 -13 62 l-7 32 -6 -35 -6 -35
-22 58 c-28 74 -29 136 -1 171 20 25 24 26 124 26 80 0 105 -3 115 -16z m-362
-10 c23 -16 29 -58 16 -123 -8 -40 -19 -40 -29 2 -7 28 -9 22 -15 -41 -5 -55
-12 -78 -28 -94 -20 -20 -22 -20 -47 -4 -78 51 -99 214 -32 261 28 20 106 19
135 -1z m-2158 -612 c15 -95 7 -104 -14 -13 -31 137 -38 223 -32 381 11 274
21 265 27 -25 4 -148 12 -303 19 -343z m215 531 c-72 -235 -79 -533 -19 -742
5 -17 4 -22 -4 -17 -6 4 -21 37 -33 74 -52 162 -30 520 42 690 24 56 32 53 14
-5z m4182 -368 c-5 -187 -19 -291 -43 -314 -3 -3 -4 3 -1 14 14 46 27 240 28
409 1 140 3 171 11 136 5 -25 7 -135 5 -245z m-3501 101 c-152 -213 -207 -522
-150 -851 7 -44 36 -154 64 -245 40 -129 52 -183 55 -250 2 -47 2 -74 -1 -60
-3 14 -12 61 -20 105 -9 44 -36 142 -60 217 -64 197 -84 310 -84 479 0 263 59
453 197 637 45 60 44 32 -1 -32z m-271 -71 c-87 -136 -125 -284 -126 -502 -1
-112 -3 -139 -10 -113 -16 59 -13 267 5 351 18 84 57 188 89 234 20 30 68 85
74 85 1 0 -13 -25 -32 -55z m2927 -264 c154 -387 173 -465 172 -696 0 -163 -9
-229 -46 -345 -22 -70 -127 -280 -140 -280 -12 0 -11 2 42 106 104 203 142
392 121 605 -21 204 -57 328 -202 692 -43 108 -79 203 -78 210 1 19 54 -100
131 -292z m715 267 c-3 -7 -5 -2 -5 12 0 14 2 19 5 13 2 -7 2 -19 0 -25z m28
-218 c12 -195 -25 -427 -104 -652 -30 -87 -93 -239 -97 -235 -2 1 23 81 56
177 99 296 137 525 127 775 -5 160 7 113 18 -65z m-185 -12 c14 -101 16 -314
2 -348 -7 -18 -11 15 -16 130 -3 85 -9 198 -11 250 -6 113 8 96 25 -32z m-846
-68 c55 -441 69 -910 32 -1105 -44 -240 -140 -480 -232 -582 -19 -22 -16 -12
16 47 97 184 166 382 196 565 24 142 22 454 -5 780 -31 376 -34 431 -28 425 2
-3 12 -61 21 -130z m-1770 -87 c-159 -322 -160 -650 -3 -1000 16 -36 28 -68
26 -70 -9 -8 -86 157 -112 237 -98 312 -52 687 112 908 13 17 25 32 27 32 1 0
-21 -48 -50 -107z m2447 -128 c17 -112 23 -195 23 -330 1 -161 -1 -188 -22
-254 -13 -40 -25 -71 -27 -69 -2 2 2 40 10 83 18 103 18 321 0 505 -15 146
-19 227 -11 219 2 -2 15 -71 27 -154z m-1858 -25 c-20 -74 -27 -127 -31 -236
-7 -218 27 -402 143 -770 101 -320 136 -521 134 -759 l-2 -120 -8 144 c-15
253 -45 413 -134 696 -133 424 -157 538 -158 735 0 115 4 152 28 250 29 122
43 165 50 159 2 -2 -8 -47 -22 -99z m-1469 -12 c-8 -136 9 -215 85 -411 34
-86 61 -162 61 -169 -1 -24 -131 275 -150 346 -22 79 -26 206 -9 286 6 27 12
50 15 50 2 0 1 -46 -2 -102z m539 -14 c-27 -136 -24 -391 5 -508 38 -153 120
-303 240 -443 69 -80 194 -188 395 -340 180 -136 355 -283 371 -312 6 -10 1
-9 -15 5 -90 78 -188 155 -377 296 -470 348 -636 585 -659 938 -6 96 10 291
33 393 23 99 28 76 7 -29z m1672 -343 c9 -63 17 -176 20 -250 l4 -136 -10 100
c-9 103 -23 209 -59 445 -28 189 -24 248 6 85 13 -71 31 -181 39 -244z m-941
297 c-9 -24 -18 -83 -21 -133 -5 -78 -1 -107 27 -223 18 -73 30 -136 27 -138
-11 -11 -69 162 -80 237 -13 91 -2 176 31 252 26 59 36 61 16 5z m-1479 -348
c33 -91 91 -207 156 -314 31 -51 39 -69 22 -49 -119 137 -240 416 -257 593 -6
62 -5 60 23 -45 16 -60 41 -144 56 -185z m3406 25 c14 -100 -1 -216 -42 -330
-40 -110 -65 -143 -34 -45 40 128 55 223 55 346 0 65 2 115 5 112 3 -2 10 -40
16 -83z m-2496 -216 c22 -86 93 -229 154 -310 28 -37 91 -105 141 -153 50 -47
87 -86 82 -86 -25 0 -134 95 -191 166 -76 93 -101 133 -151 233 -68 137 -98
268 -84 364 l8 52 12 -101 c7 -55 20 -129 29 -165z m1442 -6 c-3 -10 -5 -2 -5
17 0 19 2 27 5 18 2 -10 2 -26 0 -35z m14 -403 c-13 -175 -39 -306 -91 -461
-38 -116 -135 -324 -172 -370 -10 -13 3 21 30 76 151 307 210 550 220 910 l6
220 9 -115 c6 -75 5 -166 -2 -260z m615 233 c-15 -179 -73 -379 -152 -520 -40
-71 -63 -93 -39 -36 91 210 130 338 160 513 18 106 24 130 32 130 3 0 3 -39
-1 -87z m-1298 -373 c16 -41 53 -130 81 -197 48 -117 87 -240 78 -249 -2 -3
-17 30 -32 73 -15 43 -49 128 -75 189 -45 103 -90 232 -90 257 0 18 7 5 38
-73z m-734 -103 c17 -13 148 -104 291 -202 325 -223 402 -282 502 -390 72 -77
164 -218 150 -231 -2 -3 -26 30 -52 72 -97 156 -156 206 -636 547 -152 108
-282 203 -289 212 -19 22 -1 18 34 -8z m391 -170 c145 -97 261 -185 295 -223
l25 -28 -40 30 c-22 17 -112 80 -200 139 -169 115 -274 195 -315 240 -14 15 6
4 45 -25 38 -29 124 -89 190 -133z m740 -242 c-9 -44 -30 -107 -46 -140 -32
-65 -31 -57 5 80 25 94 44 212 48 293 1 26 4 2 6 -53 2 -67 -2 -126 -13 -180z
m369 184 c-56 -155 -159 -322 -284 -459 -38 -41 -33 -34 91 150 50 74 119 192
152 261 34 70 63 126 65 124 1 -1 -9 -35 -24 -76z"/>
<path d="M3157 7963 c-4 -6 29 -12 86 -16 97 -6 272 -38 492 -88 184 -42 183
-41 165 -29 -30 20 -267 93 -365 111 -117 22 -369 37 -378 22z"/>
<path d="M2320 7894 c-106 -16 -164 -35 -314 -98 -163 -70 -316 -128 -429
-164 -48 -15 -50 -16 -22 -20 87 -11 262 37 500 138 94 40 217 87 274 106 57
19 106 36 109 39 6 5 -78 5 -118 -1z"/>
<path d="M1167 7588 c-35 -46 -58 -95 -73 -153 -14 -52 -17 -218 -4 -270 l7
-30 6 25 c4 14 23 99 42 190 19 91 40 187 46 213 6 26 9 50 6 53 -3 3 -16 -10
-30 -28z"/>
<path d="M1320 7520 c0 -15 120 -42 211 -47 102 -6 219 13 269 43 l25 15 -30
-6 c-56 -12 -329 -17 -402 -8 -40 5 -73 6 -73 3z"/>
<path d="M1046 7398 c-38 -173 -48 -252 -53 -418 -2 -96 0 -195 5 -220 10 -45
10 -45 11 26 1 101 19 312 42 508 10 93 17 171 15 173 -2 2 -11 -29 -20 -69z"/>
<path d="M4633 7318 c3 -13 13 -63 22 -113 21 -115 26 -127 34 -95 10 38 -6
145 -29 190 -22 44 -35 52 -27 18z"/>
<path d="M4384 7195 c4 -101 29 -225 43 -211 8 8 -28 288 -39 306 -6 10 -7
-25 -4 -95z"/>
<path d="M4480 7228 c0 -7 -5 -44 -11 -83 -11 -78 -4 -154 17 -182 12 -16 13
2 14 130 0 91 -4 147 -10 147 -5 0 -10 -6 -10 -12z"/>
<path d="M4308 7214 c-14 -13 -8 -148 7 -174 14 -24 14 -24 14 20 -2 75 -14
162 -21 154z"/>
<path d="M4235 7126 c11 -77 26 -102 19 -31 -3 33 -10 65 -16 70 -7 7 -8 -5
-3 -39z"/>
<path d="M1150 7014 c-6 -32 -16 -77 -20 -99 l-9 -40 19 23 c33 41 50 130 31
161 -6 10 -13 -4 -21 -45z"/>
<path d="M3670 7020 c-105 -9 -187 -26 -220 -46 l-25 -15 25 6 c131 30 184 38
310 44 80 4 120 9 90 10 -30 1 -64 3 -75 5 -11 2 -58 0 -105 -4z"/>
<path d="M3918 7003 c7 -3 16 -2 19 1 4 3 -2 6 -13 5 -11 0 -14 -3 -6 -6z"/>
<path d="M1683 6955 c-75 -14 -177 -44 -170 -51 2 -3 109 7 238 21 129 14 245
25 259 26 23 0 23 1 5 9 -30 13 -251 10 -332 -5z"/>
<path d="M3961 6955 c5 -4 147 -39 362 -90 31 -7 54 -9 51 -4 -13 22 -134 72
-204 85 -72 13 -219 19 -209 9z"/>
<path d="M3489 6927 c-41 -13 -95 -35 -120 -49 -43 -25 -110 -91 -136 -134
-10 -17 -12 -14 -13 21 -1 38 -1 39 -16 20 -11 -14 -14 -35 -11 -70 4 -48 4
-49 -9 -20 -25 57 -18 91 29 142 39 43 40 45 12 30 -16 -8 -43 -29 -60 -47
-25 -26 -30 -40 -30 -78 0 -50 42 -147 77 -178 20 -19 25 -5 8 27 -6 10 -7 19
-2 19 4 0 16 -17 27 -37 24 -51 30 -28 16 66 -12 83 -6 118 27 154 27 30 136
86 235 123 104 37 82 45 -34 11z"/>
<path d="M2662 6846 c84 -79 95 -123 58 -231 -28 -83 -20 -90 15 -14 40 88 44
153 13 199 -23 35 -110 100 -132 100 -6 0 15 -25 46 -54z"/>
<path d="M3725 6880 c-40 -6 -30 -7 54 -8 122 -2 266 -22 447 -63 150 -33 187
-36 99 -8 -107 35 -267 68 -380 79 -117 11 -142 11 -220 0z"/>
<path d="M2531 6860 c-1 -8 6 -40 14 -70 8 -30 15 -86 16 -125 l0 -70 15 40
c21 53 13 129 -20 191 -14 27 -25 42 -25 34z"/>
<path d="M2297 6765 c3 -38 10 -77 15 -85 11 -18 -1 106 -13 135 -5 12 -6 -9
-2 -50z"/>
<path d="M2364 6791 c3 -18 6 -51 6 -73 0 -24 4 -37 10 -33 16 10 12 99 -6
121 -15 18 -15 17 -10 -15z"/>
<path d="M2450 6721 c0 -69 13 -100 25 -61 6 19 -12 130 -21 130 -2 0 -4 -31
-4 -69z"/>
<path d="M1717 6649 c-85 -11 -241 -62 -293 -95 -31 -19 -34 -23 -14 -19 14 3
84 13 155 24 358 53 494 76 487 83 -12 12 -260 18 -335 7z"/>
<path d="M4121 6596 c2 -3 59 -14 126 -25 67 -12 159 -32 205 -45 45 -14 84
-23 86 -21 8 8 -136 56 -209 69 -91 16 -215 29 -208 22z"/>
<path d="M3632 6549 c-97 -14 -160 -43 -250 -115 -119 -93 -126 -111 -120
-313 4 -127 9 -168 27 -220 31 -88 84 -165 150 -217 61 -48 174 -107 195 -102
7 2 -38 50 -101 107 -62 57 -111 106 -109 108 3 3 45 -17 93 -43 185 -103 317
-155 486 -194 133 -31 212 -25 305 21 90 45 91 46 63 15 -35 -38 -21 -41 31
-6 82 55 153 166 209 328 60 172 58 289 -7 420 -38 79 -86 123 -153 142 -48
14 -315 46 -534 65 -195 16 -195 16 -285 4z m902 -605 c-35 -114 -147 -240
-233 -264 -52 -14 -48 -6 12 28 90 51 158 142 213 287 15 39 20 45 22 27 2
-13 -4 -48 -14 -78z m-1024 34 c31 -29 113 -87 181 -128 124 -75 142 -103 37
-59 -76 33 -156 84 -211 138 -45 43 -86 101 -71 101 3 0 32 -24 64 -52z m890
-98 c-44 -86 -145 -170 -204 -170 -28 0 -26 2 22 26 35 17 77 53 124 105 40
43 73 79 75 79 2 0 -6 -18 -17 -40z m-829 -86 c157 -106 488 -203 649 -190 69
6 73 5 50 -9 -36 -21 -177 -19 -280 4 -166 37 -369 125 -443 192 -53 48 -44
49 24 3z"/>
<path d="M2025 6543 c-204 -8 -503 -56 -553 -89 -40 -27 -70 -65 -104 -134
-44 -91 -48 -164 -15 -300 54 -221 95 -308 188 -395 79 -74 124 -90 249 -90
182 1 403 70 644 200 66 36 122 63 124 60 3 -2 -19 -26 -49 -52 -103 -91 -169
-156 -164 -161 12 -12 175 81 230 131 112 102 149 204 149 422 1 134 0 143
-27 197 -46 94 -187 188 -314 208 -54 9 -186 10 -358 3z m-416 -787 c51 -47
52 -57 2 -31 -57 29 -131 147 -131 209 0 23 8 12 40 -51 26 -52 57 -96 89
-127z m3 127 c76 -108 78 -112 43 -89 -17 10 -38 28 -48 40 -31 36 -69 126
-54 126 2 0 29 -35 59 -77z m928 -43 c-98 -87 -432 -231 -531 -230 -40 1 -32
5 96 52 77 29 212 89 300 134 88 45 165 82 170 83 6 0 -10 -18 -35 -39z m-270
-15 c-36 -38 -116 -72 -214 -90 -83 -16 -122 -15 -80 2 104 42 292 111 303
112 10 1 6 -8 -9 -24z"/>
<path d="M4692 6355 c18 -40 23 -76 28 -180 l5 -130 14 74 c18 101 1 202 -45
257 l-24 29 22 -50z"/>
<path d="M3074 6336 c-19 -9 -37 -11 -45 -5 -16 10 -103 12 -136 3 -40 -11
-25 -24 26 -24 84 0 90 -10 103 -185 14 -173 15 -225 3 -279 -10 -49 6 -42 35
14 18 35 20 59 20 234 0 107 3 201 6 210 5 12 20 16 59 16 30 0 57 5 60 10 3
6 -4 10 -18 10 -14 0 -37 2 -53 5 -16 3 -43 -1 -60 -9z"/>
<path d="M2775 6003 c-15 -82 -31 -163 -35 -181 -13 -52 10 -35 44 32 27 52
30 69 34 177 3 77 1 119 -6 119 -5 0 -22 -66 -37 -147z"/>
<path d="M3210 5762 c0 -5 6 -14 13 -20 28 -24 58 -114 96 -287 22 -99 58
-227 79 -285 21 -58 54 -150 72 -205 31 -95 50 -135 50 -106 0 86 -66 367
-103 436 -10 19 -10 19 -17 1 -4 -12 -25 55 -57 183 -29 111 -61 217 -73 236
-21 35 -60 65 -60 47z"/>
<path d="M4602 5706 c-80 -121 -182 -192 -317 -221 l-70 -14 70 3 c55 2 84 10
134 36 80 40 175 129 208 193 37 74 23 76 -25 3z"/>
<path d="M2610 5673 c-41 -35 -86 -76 -100 -90 l-25 -26 44 24 c23 13 60 39
82 57 38 33 84 90 78 96 -2 2 -38 -25 -79 -61z"/>
<path d="M3145 5679 c-16 -3 -64 -7 -106 -8 -84 -1 -121 -20 -141 -70 -22 -57
-228 -754 -228 -772 0 -66 83 -148 175 -175 87 -25 123 2 152 113 17 68 28 83
57 83 36 0 46 -14 65 -95 25 -103 33 -109 140 -100 103 8 157 28 176 66 22 41
19 67 -19 187 -70 221 -147 494 -176 632 -12 52 -23 103 -26 113 -8 24 -34 35
-69 26z m-180 -133 c-14 -28 -24 -72 -29 -124 -10 -123 -72 -315 -152 -474
-54 -106 -48 -175 19 -217 21 -14 26 -21 15 -21 -26 0 -77 49 -86 83 -11 42
12 124 88 315 37 94 68 192 85 272 26 123 56 210 74 210 4 0 -2 -20 -14 -44z
m240 -792 c57 -37 155 9 155 72 0 14 4 22 10 19 13 -8 13 -51 0 -76 -6 -10
-28 -28 -50 -39 -76 -39 -146 -19 -174 50 -9 22 -16 50 -16 63 1 16 7 10 26
-25 13 -26 36 -55 49 -64z"/>
<path d="M3350 5648 c0 -4 11 -37 24 -75 14 -37 37 -115 51 -173 25 -99 58
-190 69 -190 2 0 -5 32 -15 70 -34 121 -14 102 25 -24 21 -65 35 -125 32 -133
-6 -14 32 -99 40 -90 7 7 -15 149 -33 202 -9 27 -35 86 -58 130 -24 44 -52
109 -64 145 -18 57 -70 157 -71 138z"/>
<path d="M4652 5592 c-60 -105 -152 -155 -317 -172 -88 -9 -132 -8 -250 5 -36
5 -38 4 -22 -9 10 -8 55 -24 100 -36 107 -29 252 -25 341 10 101 39 173 123
190 223 4 20 3 37 -1 37 -4 0 -23 -26 -41 -58z"/>
<path d="M2589 5548 c-85 -92 -76 -106 12 -18 40 40 88 110 75 110 -2 0 -41
-41 -87 -92z"/>
<path d="M2736 5448 c-49 -97 -68 -142 -51 -123 34 39 92 142 117 207 38 102
10 66 -66 -84z"/>
<path d="M2668 5493 c-35 -54 -73 -111 -83 -128 l-19 -30 33 30 c54 49 152
207 138 221 -2 3 -33 -40 -69 -93z"/>
<path d="M1457 5501 c92 -89 188 -138 318 -159 82 -13 102 -13 184 1 108 18
292 100 271 120 -3 3 -59 -8 -125 -24 -156 -39 -266 -46 -367 -26 -94 20 -186
57 -253 101 -93 61 -100 58 -28 -13z"/>
<path d="M2077 5521 c-59 -21 -111 -41 -114 -45 -12 -12 64 -6 117 10 49 14
130 58 130 69 0 10 -27 3 -133 -34z"/>
<path d="M4881 5518 c-1 -4 6 -35 14 -70 24 -108 35 -222 24 -262 -10 -35 -28
-49 -30 -23 0 6 -7 -4 -16 -23 -37 -85 -97 -129 -176 -130 -23 0 -36 -4 -32
-10 3 -5 27 -10 52 -10 39 0 44 -2 33 -15 -16 -19 -85 -19 -162 -1 -82 19 -72
1 13 -24 81 -24 87 -36 10 -19 -28 6 -57 9 -64 6 -19 -6 99 -47 136 -47 52 0
131 46 192 111 103 112 121 181 85 319 -20 75 -77 217 -79 198z"/>
<path d="M1335 5441 c51 -55 123 -102 187 -122 34 -11 63 -17 66 -14 3 2 -4 8
-14 11 -71 25 -177 81 -219 116 -42 35 -45 37 -20 9z"/>
<path d="M4791 5390 c0 -79 1 -83 14 -60 18 31 18 76 0 115 -13 28 -13 25 -14
-55z"/>
<path d="M4847 5413 c6 -97 13 -127 25 -115 22 22 3 172 -21 172 -4 0 -6 -26
-4 -57z"/>
<path d="M3530 5368 c0 -13 63 -156 84 -193 21 -34 108 -127 94 -100 -14 27
-162 281 -170 290 -4 5 -8 6 -8 3z"/>
<path d="M4465 5325 c-5 -2 -59 -7 -119 -10 -100 -7 -108 -8 -85 -21 48 -27
219 -6 219 27 0 5 -1 9 -2 8 -2 0 -7 -2 -13 -4z"/>
<path d="M1607 5289 c7 -7 38 -14 70 -16 73 -5 52 12 -27 22 -44 6 -53 5 -43
-6z"/>
<path d="M1149 5270 c-8 -127 42 -242 125 -282 64 -31 106 -10 47 23 -38 22
-86 94 -132 198 -28 62 -39 79 -40 61z"/>
<path d="M4992 5148 c-22 -64 -43 -101 -101 -178 l-26 -34 32 22 c74 52 130
158 121 229 -3 23 -7 16 -26 -39z"/>
<path d="M1053 5145 c4 -69 27 -123 71 -167 34 -34 99 -67 132 -68 18 0 9 13
-45 68 -37 37 -89 103 -115 147 l-47 80 4 -60z"/>
<path d="M2463 5062 c-72 -105 -61 -242 25 -335 24 -25 98 -55 109 -44 2 3
-16 26 -41 53 -76 79 -98 190 -63 322 8 28 11 52 8 52 -3 0 -20 -21 -38 -48z"/>
<path d="M1653 4945 c-63 -17 -354 -133 -367 -146 -22 -20 59 -7 191 30 76 22
166 45 201 52 60 11 196 8 305 -7 68 -10 59 7 -24 46 -61 28 -86 33 -163 36
-60 3 -109 -1 -143 -11z"/>
<path d="M4283 4937 c5 -14 -2 -15 -57 -10 -35 3 -93 0 -129 -6 -76 -13 -201
-50 -194 -57 3 -3 47 3 98 12 54 10 141 17 204 17 99 -1 124 -5 250 -43 164
-49 241 -59 270 -36 18 14 19 15 2 16 -29 0 -10 17 28 24 51 10 44 29 -8 21
-51 -8 -141 7 -257 42 -47 14 -114 28 -149 31 -56 4 -64 3 -58 -11z"/>
<path d="M2350 4844 c0 -64 27 -129 71 -169 36 -32 59 -44 59 -29 0 3 -16 24
-35 47 -19 22 -48 75 -65 116 -29 75 -29 75 -30 35z"/>
<path d="M3482 4752 c-26 -60 -22 -77 9 -45 15 15 20 30 17 59 l-3 39 -23 -53z"/>
<path d="M3036 4684 c-12 -47 -50 -74 -103 -74 -44 -1 -47 -2 -29 -15 28 -21
75 -18 115 6 23 14 44 19 63 15 15 -3 28 -4 28 -2 0 11 -53 96 -60 96 -4 0
-11 -12 -14 -26z"/>
</g>
</svg>
